<svg width="1348" height="560" viewBox="0 0 1348 560" fill="none" xmlns="http://www.w3.org/2000/svg">
<path d="M0 16C0 7.16344 7.16344 0 16 0H1332C1340.84 0 1348 7.16344 1348 16V544C1348 552.837 1340.84 560 1332 560H16C7.16344 560 0 552.837 0 544V16Z" fill="#536C54"/>
<path d="M258 206C258 197.163 265.163 190 274 190H422C430.837 190 438 197.163 438 206V354C438 362.837 430.837 370 422 370H274C265.163 370 258 362.837 258 354V206Z" fill="#F6EFD1"/>
<path d="M384.524 233.593C384.524 227.19 389.714 222 396.117 222V222C402.519 222 407.71 227.19 407.71 233.593V325.407C407.71 331.81 402.519 337 396.117 337V337C389.714 337 384.524 331.81 384.524 325.407V233.593Z" fill="#536C54" fill-opacity="0.6"/>
<path d="M343.718 234C343.718 227.373 349.09 222 355.718 222H364.177C370.805 222 376.177 227.373 376.177 234V325C376.177 331.627 370.805 337 364.177 337H355.718C349.09 337 343.718 331.627 343.718 325V234Z" fill="#536C54" fill-opacity="0.8"/>
<path d="M289 234C289 227.373 294.373 222 301 222H323.371C329.998 222 335.371 227.373 335.371 234V325C335.371 331.627 329.998 337 323.371 337H301C294.373 337 289 331.627 289 325V234Z" fill="#536C54"/>
<path d="M524.361 299.932L524.395 282.511H526.509L543.281 262.636H559.952L537.418 288.955H533.974L524.361 299.932ZM511.202 315V245.182H525.724V315H511.202ZM543.929 315L528.52 292.193L538.202 281.932L560.94 315H543.929ZM588.58 316.023C583.284 316.023 578.705 314.898 574.841 312.648C571 310.375 568.034 307.216 565.943 303.17C563.852 299.102 562.807 294.386 562.807 289.023C562.807 283.614 563.852 278.886 565.943 274.841C568.034 270.773 571 267.614 574.841 265.364C578.705 263.091 583.284 261.955 588.58 261.955C593.875 261.955 598.443 263.091 602.284 265.364C606.148 267.614 609.125 270.773 611.216 274.841C613.307 278.886 614.352 283.614 614.352 289.023C614.352 294.386 613.307 299.102 611.216 303.17C609.125 307.216 606.148 310.375 602.284 312.648C598.443 314.898 593.875 316.023 588.58 316.023ZM588.648 304.773C591.057 304.773 593.068 304.091 594.682 302.727C596.295 301.341 597.511 299.455 598.33 297.068C599.17 294.682 599.591 291.966 599.591 288.92C599.591 285.875 599.17 283.159 598.33 280.773C597.511 278.386 596.295 276.5 594.682 275.114C593.068 273.727 591.057 273.034 588.648 273.034C586.216 273.034 584.17 273.727 582.511 275.114C580.875 276.5 579.636 278.386 578.795 280.773C577.977 283.159 577.568 285.875 577.568 288.92C577.568 291.966 577.977 294.682 578.795 297.068C579.636 299.455 580.875 301.341 582.511 302.727C584.17 304.091 586.216 304.773 588.648 304.773ZM638.318 284.727V315H623.795V262.636H637.636V271.875H638.25C639.409 268.83 641.352 266.42 644.08 264.648C646.807 262.852 650.114 261.955 654 261.955C657.636 261.955 660.807 262.75 663.511 264.341C666.216 265.932 668.318 268.205 669.818 271.159C671.318 274.091 672.068 277.591 672.068 281.659V315H657.545V284.25C657.568 281.045 656.75 278.545 655.091 276.75C653.432 274.932 651.148 274.023 648.239 274.023C646.284 274.023 644.557 274.443 643.057 275.284C641.58 276.125 640.42 277.352 639.58 278.966C638.761 280.557 638.341 282.477 638.318 284.727ZM711.366 262.636V273.545H679.832V262.636H711.366ZM686.991 250.091H701.514V298.909C701.514 300.25 701.719 301.295 702.128 302.045C702.537 302.773 703.105 303.284 703.832 303.58C704.582 303.875 705.446 304.023 706.423 304.023C707.105 304.023 707.787 303.966 708.469 303.852C709.151 303.716 709.673 303.614 710.037 303.545L712.321 314.352C711.594 314.58 710.571 314.841 709.253 315.136C707.935 315.455 706.332 315.648 704.446 315.716C700.946 315.852 697.878 315.386 695.241 314.318C692.628 313.25 690.594 311.591 689.139 309.341C687.685 307.091 686.969 304.25 686.991 300.818V250.091ZM720.827 315V262.636H734.906V271.773H735.452C736.406 268.523 738.009 266.068 740.259 264.409C742.509 262.727 745.099 261.886 748.031 261.886C748.759 261.886 749.543 261.932 750.384 262.023C751.224 262.114 751.963 262.239 752.599 262.398V275.284C751.918 275.08 750.974 274.898 749.77 274.739C748.565 274.58 747.463 274.5 746.463 274.5C744.327 274.5 742.418 274.966 740.736 275.898C739.077 276.807 737.759 278.08 736.781 279.716C735.827 281.352 735.349 283.239 735.349 285.375V315H720.827ZM781.33 316.023C776.034 316.023 771.455 314.898 767.591 312.648C763.75 310.375 760.784 307.216 758.693 303.17C756.602 299.102 755.557 294.386 755.557 289.023C755.557 283.614 756.602 278.886 758.693 274.841C760.784 270.773 763.75 267.614 767.591 265.364C771.455 263.091 776.034 261.955 781.33 261.955C786.625 261.955 791.193 263.091 795.034 265.364C798.898 267.614 801.875 270.773 803.966 274.841C806.057 278.886 807.102 283.614 807.102 289.023C807.102 294.386 806.057 299.102 803.966 303.17C801.875 307.216 798.898 310.375 795.034 312.648C791.193 314.898 786.625 316.023 781.33 316.023ZM781.398 304.773C783.807 304.773 785.818 304.091 787.432 302.727C789.045 301.341 790.261 299.455 791.08 297.068C791.92 294.682 792.341 291.966 792.341 288.92C792.341 285.875 791.92 283.159 791.08 280.773C790.261 278.386 789.045 276.5 787.432 275.114C785.818 273.727 783.807 273.034 781.398 273.034C778.966 273.034 776.92 273.727 775.261 275.114C773.625 276.5 772.386 278.386 771.545 280.773C770.727 283.159 770.318 285.875 770.318 288.92C770.318 291.966 770.727 294.682 771.545 297.068C772.386 299.455 773.625 301.341 775.261 302.727C776.92 304.091 778.966 304.773 781.398 304.773ZM831.068 245.182V315H816.545V245.182H831.068ZM842.702 334.636V262.636H857.02V271.432H857.668C858.304 270.023 859.224 268.591 860.429 267.136C861.656 265.659 863.247 264.432 865.202 263.455C867.179 262.455 869.634 261.955 872.565 261.955C876.384 261.955 879.906 262.955 883.134 264.955C886.361 266.932 888.94 269.92 890.872 273.92C892.804 277.898 893.77 282.886 893.77 288.886C893.77 294.727 892.827 299.659 890.94 303.682C889.077 307.682 886.531 310.716 883.304 312.784C880.099 314.83 876.509 315.852 872.531 315.852C869.713 315.852 867.315 315.386 865.338 314.455C863.384 313.523 861.781 312.352 860.531 310.943C859.281 309.511 858.327 308.068 857.668 306.614H857.224V334.636H842.702ZM856.918 288.818C856.918 291.932 857.349 294.648 858.213 296.966C859.077 299.284 860.327 301.091 861.963 302.386C863.599 303.659 865.588 304.295 867.929 304.295C870.293 304.295 872.293 303.648 873.929 302.352C875.565 301.034 876.804 299.216 877.645 296.898C878.509 294.557 878.94 291.864 878.94 288.818C878.94 285.795 878.52 283.136 877.679 280.841C876.838 278.545 875.599 276.75 873.963 275.455C872.327 274.159 870.315 273.511 867.929 273.511C865.565 273.511 863.565 274.136 861.929 275.386C860.315 276.636 859.077 278.409 858.213 280.705C857.349 283 856.918 285.705 856.918 288.818ZM917.974 245.182V315H903.452V245.182H917.974ZM944.54 315.989C941.199 315.989 938.222 315.409 935.608 314.25C932.994 313.068 930.926 311.33 929.403 309.034C927.903 306.716 927.153 303.83 927.153 300.375C927.153 297.466 927.688 295.023 928.756 293.045C929.824 291.068 931.278 289.477 933.119 288.273C934.96 287.068 937.051 286.159 939.392 285.545C941.756 284.932 944.233 284.5 946.824 284.25C949.869 283.932 952.324 283.636 954.188 283.364C956.051 283.068 957.403 282.636 958.244 282.068C959.085 281.5 959.506 280.659 959.506 279.545V279.341C959.506 277.182 958.824 275.511 957.46 274.33C956.119 273.148 954.21 272.557 951.733 272.557C949.119 272.557 947.04 273.136 945.494 274.295C943.949 275.432 942.926 276.864 942.426 278.591L928.994 277.5C929.676 274.318 931.017 271.568 933.017 269.25C935.017 266.909 937.597 265.114 940.756 263.864C943.938 262.591 947.619 261.955 951.801 261.955C954.71 261.955 957.494 262.295 960.153 262.977C962.835 263.659 965.21 264.716 967.278 266.148C969.369 267.58 971.017 269.42 972.222 271.67C973.426 273.898 974.028 276.568 974.028 279.682V315H960.256V307.739H959.847C959.006 309.375 957.881 310.818 956.472 312.068C955.062 313.295 953.369 314.261 951.392 314.966C949.415 315.648 947.131 315.989 944.54 315.989ZM948.699 305.966C950.835 305.966 952.722 305.545 954.358 304.705C955.994 303.841 957.278 302.682 958.21 301.227C959.142 299.773 959.608 298.125 959.608 296.284V290.727C959.153 291.023 958.528 291.295 957.733 291.545C956.96 291.773 956.085 291.989 955.108 292.193C954.131 292.375 953.153 292.545 952.176 292.705C951.199 292.841 950.312 292.966 949.517 293.08C947.813 293.33 946.324 293.727 945.051 294.273C943.778 294.818 942.79 295.557 942.085 296.489C941.381 297.398 941.028 298.534 941.028 299.898C941.028 301.875 941.744 303.386 943.176 304.432C944.631 305.455 946.472 305.966 948.699 305.966ZM999.818 284.727V315H985.295V262.636H999.136V271.875H999.75C1000.91 268.83 1002.85 266.42 1005.58 264.648C1008.31 262.852 1011.61 261.955 1015.5 261.955C1019.14 261.955 1022.31 262.75 1025.01 264.341C1027.72 265.932 1029.82 268.205 1031.32 271.159C1032.82 274.091 1033.57 277.591 1033.57 281.659V315H1019.05V284.25C1019.07 281.045 1018.25 278.545 1016.59 276.75C1014.93 274.932 1012.65 274.023 1009.74 274.023C1007.78 274.023 1006.06 274.443 1004.56 275.284C1003.08 276.125 1001.92 277.352 1001.08 278.966C1000.26 280.557 999.841 282.477 999.818 284.727ZM1068.88 316.023C1063.49 316.023 1058.86 314.932 1054.97 312.75C1051.11 310.545 1048.13 307.432 1046.04 303.409C1043.95 299.364 1042.9 294.58 1042.9 289.057C1042.9 283.67 1043.95 278.943 1046.04 274.875C1048.13 270.807 1051.07 267.636 1054.87 265.364C1058.68 263.091 1063.16 261.955 1068.3 261.955C1071.75 261.955 1074.97 262.511 1077.95 263.625C1080.95 264.716 1083.56 266.364 1085.79 268.568C1088.04 270.773 1089.79 273.545 1091.04 276.886C1092.29 280.205 1092.91 284.091 1092.91 288.545V292.534H1048.7V283.534H1079.24C1079.24 281.443 1078.79 279.591 1077.88 277.977C1076.97 276.364 1075.71 275.102 1074.09 274.193C1072.5 273.261 1070.65 272.795 1068.54 272.795C1066.33 272.795 1064.38 273.307 1062.67 274.33C1060.99 275.33 1059.67 276.682 1058.72 278.386C1057.76 280.068 1057.28 281.943 1057.25 284.011V292.568C1057.25 295.159 1057.73 297.398 1058.68 299.284C1059.66 301.17 1061.04 302.625 1062.81 303.648C1064.58 304.67 1066.68 305.182 1069.12 305.182C1070.73 305.182 1072.21 304.955 1073.55 304.5C1074.89 304.045 1076.04 303.364 1076.99 302.455C1077.95 301.545 1078.67 300.432 1079.17 299.114L1092.61 300C1091.92 303.227 1090.53 306.045 1088.41 308.455C1086.32 310.841 1083.62 312.705 1080.3 314.045C1077 315.364 1073.2 316.023 1068.88 316.023Z" fill="#F6EFD1"/>
</svg>
