<svg width="1348" height="560" viewBox="0 0 1348 560" fill="none" xmlns="http://www.w3.org/2000/svg">
<path d="M0 16C0 7.16344 7.16344 0 16 0H1332C1340.84 0 1348 7.16344 1348 16V544C1348 552.837 1340.84 560 1332 560H16C7.16344 560 0 552.837 0 544V16Z" fill="#536C54"/>
<path d="M981 243C981 234.163 988.163 227 997 227H1076.42C1085.26 227 1092.42 234.163 1092.42 243V322.422C1092.42 331.258 1085.26 338.422 1076.42 338.422H997C988.163 338.422 981 331.258 981 322.422V243Z" fill="#F6EFD1"/>
<path d="M1059.32 253.984C1059.32 250.021 1062.53 246.808 1066.5 246.808V246.808C1070.46 246.808 1073.67 250.021 1073.67 253.984V310.818C1073.67 314.781 1070.46 317.994 1066.5 317.994V317.994C1062.53 317.994 1059.32 314.781 1059.32 310.818V253.984Z" fill="#536C54" fill-opacity="0.6"/>
<path d="M1034.06 256.855C1034.06 251.306 1038.56 246.808 1044.11 246.808V246.808C1049.65 246.808 1054.15 251.306 1054.15 256.855V307.948C1054.15 313.496 1049.65 317.994 1044.11 317.994V317.994C1038.56 317.994 1034.06 313.496 1034.06 307.948V256.855Z" fill="#536C54" fill-opacity="0.8"/>
<path d="M1000.19 258.808C1000.19 252.181 1005.56 246.808 1012.19 246.808H1016.89C1023.52 246.808 1028.89 252.181 1028.89 258.808V305.994C1028.89 312.622 1023.52 317.994 1016.89 317.994H1012.19C1005.56 317.994 1000.19 312.622 1000.19 305.994V258.808Z" fill="#536C54"/>
<path d="M316.032 318H297.556L283.537 292.971L277.199 299.577V318H262.16V239.099H277.199V281.745L296.267 259.724H315.227L294.763 282.121L316.032 318ZM372.375 266.867C377.316 273.062 379.787 280.384 379.787 288.835C379.787 297.429 377.316 304.787 372.375 310.91C367.434 316.997 359.932 320.041 349.87 320.041C339.808 320.041 332.307 316.997 327.365 310.91C322.424 304.787 319.953 297.429 319.953 288.835C319.953 280.384 322.424 273.062 327.365 266.867C332.307 260.673 339.808 257.575 349.87 257.575C359.932 257.575 367.434 260.673 372.375 266.867ZM349.816 270.52C345.34 270.52 341.885 272.113 339.45 275.3C337.051 278.451 335.852 282.963 335.852 288.835C335.852 294.707 337.051 299.237 339.45 302.424C341.885 305.611 345.34 307.204 349.816 307.204C354.292 307.204 357.73 305.611 360.129 302.424C362.528 299.237 363.728 294.707 363.728 288.835C363.728 282.963 362.528 278.451 360.129 275.3C357.73 272.113 354.292 270.52 349.816 270.52ZM418.352 270.788C413.16 270.788 409.597 272.99 407.663 277.395C406.66 279.722 406.159 282.694 406.159 286.311V318H390.905V259.562H405.676V268.103C407.645 265.095 409.507 262.928 411.262 261.604C414.413 259.24 418.405 258.059 423.239 258.059C429.291 258.059 434.232 259.652 438.063 262.839C441.931 265.99 443.864 271.236 443.864 278.576V318H428.181V282.39C428.181 279.31 427.769 276.947 426.945 275.3C425.441 272.292 422.577 270.788 418.352 270.788ZM484.846 307.097V318.537L477.595 318.806C470.362 319.056 465.42 317.803 462.771 315.046C461.052 313.291 460.192 310.588 460.192 306.936V270.896H452.028V259.992H460.192V243.664H475.339V259.992H484.846V270.896H475.339V301.833C475.339 304.232 475.643 305.736 476.252 306.345C476.861 306.918 478.723 307.204 481.838 307.204C482.303 307.204 482.787 307.204 483.288 307.204C483.825 307.168 484.344 307.132 484.846 307.097ZM524.108 273.581C517.95 273.581 513.814 275.586 511.701 279.597C510.52 281.853 509.929 285.326 509.929 290.017V318H494.514V259.455H509.123V269.66C511.486 265.757 513.545 263.09 515.3 261.657C518.164 259.258 521.888 258.059 526.472 258.059C526.758 258.059 526.991 258.076 527.17 258.112C527.385 258.112 527.832 258.13 528.513 258.166V273.85C527.546 273.742 526.687 273.671 525.935 273.635C525.183 273.599 524.574 273.581 524.108 273.581ZM586.359 266.867C591.301 273.062 593.771 280.384 593.771 288.835C593.771 297.429 591.301 304.787 586.359 310.91C581.418 316.997 573.916 320.041 563.854 320.041C553.793 320.041 546.291 316.997 541.35 310.91C536.408 304.787 533.938 297.429 533.938 288.835C533.938 280.384 536.408 273.062 541.35 266.867C546.291 260.673 553.793 257.575 563.854 257.575C573.916 257.575 581.418 260.673 586.359 266.867ZM563.801 270.52C559.325 270.52 555.869 272.113 553.435 275.3C551.035 278.451 549.836 282.963 549.836 288.835C549.836 294.707 551.035 299.237 553.435 302.424C555.869 305.611 559.325 307.204 563.801 307.204C568.277 307.204 571.714 305.611 574.113 302.424C576.512 299.237 577.712 294.707 577.712 288.835C577.712 282.963 576.512 278.451 574.113 275.3C571.714 272.113 568.277 270.52 563.801 270.52ZM605.104 238.83H620.412V318H605.104V238.83ZM684.436 265.739C689.162 270.788 691.525 278.2 691.525 287.976C691.525 298.288 689.198 306.148 684.543 311.555C679.924 316.962 673.962 319.665 666.657 319.665C662.002 319.665 658.135 318.501 655.056 316.174C653.373 314.885 651.726 313.005 650.114 310.534V341.042H634.968V259.455H649.631V268.103C651.278 265.56 653.033 263.555 654.895 262.087C658.296 259.473 662.342 258.166 667.033 258.166C673.872 258.166 679.673 260.69 684.436 265.739ZM675.734 288.728C675.734 284.216 674.696 280.223 672.619 276.75C670.578 273.277 667.248 271.54 662.629 271.54C657.079 271.54 653.265 274.172 651.188 279.436C650.114 282.229 649.577 285.773 649.577 290.07C649.577 296.874 651.385 301.654 655.002 304.411C657.15 306.022 659.693 306.828 662.629 306.828C666.89 306.828 670.131 305.181 672.351 301.887C674.606 298.592 675.734 294.206 675.734 288.728ZM702.966 238.83H718.273V318H702.966V238.83ZM735.461 265.793C739.507 260.637 746.454 258.059 756.301 258.059C762.71 258.059 768.404 259.33 773.381 261.872C778.358 264.414 780.847 269.213 780.847 276.267V303.122C780.847 304.984 780.882 307.24 780.954 309.89C781.062 311.895 781.366 313.256 781.867 313.972C782.368 314.688 783.12 315.279 784.123 315.744V318H767.473C767.007 316.818 766.685 315.708 766.506 314.67C766.327 313.632 766.184 312.45 766.076 311.125C763.964 313.417 761.529 315.368 758.771 316.979C755.477 318.877 751.753 319.826 747.6 319.826C742.3 319.826 737.914 318.322 734.44 315.314C731.003 312.271 729.284 307.974 729.284 302.424C729.284 295.227 732.059 290.017 737.609 286.794C740.653 285.039 745.129 283.786 751.037 283.034L756.247 282.39C759.076 282.032 761.099 281.584 762.316 281.047C764.501 280.116 765.593 278.666 765.593 276.696C765.593 274.297 764.751 272.65 763.068 271.755C761.421 270.824 758.986 270.358 755.764 270.358C752.147 270.358 749.587 271.254 748.083 273.044C747.009 274.369 746.293 276.159 745.935 278.415H731.164C731.486 273.295 732.919 269.087 735.461 265.793ZM746.848 306.936C748.28 308.117 750.035 308.708 752.111 308.708C755.406 308.708 758.431 307.741 761.188 305.808C763.981 303.874 765.432 300.347 765.539 295.227V289.533C764.572 290.142 763.588 290.643 762.585 291.037C761.618 291.395 760.275 291.735 758.557 292.058L755.119 292.702C751.896 293.275 749.587 293.973 748.19 294.797C745.827 296.193 744.646 298.36 744.646 301.296C744.646 303.91 745.38 305.79 746.848 306.936ZM822.043 270.788C816.851 270.788 813.288 272.99 811.354 277.395C810.352 279.722 809.851 282.694 809.851 286.311V318H794.597V259.562H809.367V268.103C811.337 265.095 813.199 262.928 814.953 261.604C818.104 259.24 822.097 258.059 826.931 258.059C832.982 258.059 837.924 259.652 841.755 262.839C845.622 265.99 847.556 271.236 847.556 278.576V318H831.872V282.39C831.872 279.31 831.46 276.947 830.637 275.3C829.133 272.292 826.268 270.788 822.043 270.788ZM911.848 300.812C911.454 304.286 909.646 307.813 906.423 311.394C901.41 317.087 894.392 319.934 885.368 319.934C877.92 319.934 871.35 317.535 865.656 312.736C859.963 307.938 857.116 300.132 857.116 289.318C857.116 279.185 859.676 271.415 864.797 266.008C869.953 260.601 876.631 257.897 884.831 257.897C889.701 257.897 894.087 258.811 897.99 260.637C901.893 262.463 905.116 265.345 907.658 269.284C909.95 272.757 911.436 276.786 912.116 281.369C912.51 284.055 912.671 287.922 912.6 292.971H872.531C872.746 298.843 874.59 302.961 878.063 305.324C880.176 306.792 882.718 307.526 885.69 307.526C888.841 307.526 891.402 306.631 893.371 304.841C894.445 303.874 895.394 302.531 896.218 300.812H911.848ZM896.701 282.873C896.451 278.827 895.215 275.765 892.995 273.688C890.811 271.576 888.09 270.52 884.831 270.52C881.286 270.52 878.529 271.63 876.56 273.85C874.626 276.07 873.409 279.077 872.907 282.873H896.701Z" fill="#F6EFD1"/>
</svg>
