<svg width="1984" height="750" viewBox="0 0 1984 750" fill="none" xmlns="http://www.w3.org/2000/svg">
<rect width="1984" height="750" rx="20" fill="#536C54"/>
<path d="M328.576 533.608H346.752V582.632L369.664 558.824H391.168L366.208 583.144L393.984 625H371.968L353.792 595.432L346.752 602.216V625H328.576V533.608ZM416.54 591.976C416.54 594.621 416.796 597.224 417.308 599.784C417.82 602.259 418.673 604.52 419.868 606.568C421.148 608.531 422.812 610.109 424.86 611.304C426.908 612.499 429.468 613.096 432.54 613.096C435.612 613.096 438.172 612.499 440.22 611.304C442.353 610.109 444.017 608.531 445.212 606.568C446.492 604.52 447.388 602.259 447.9 599.784C448.412 597.224 448.668 594.621 448.668 591.976C448.668 589.331 448.412 586.728 447.9 584.168C447.388 581.608 446.492 579.347 445.212 577.384C444.017 575.421 442.353 573.843 440.22 572.648C438.172 571.368 435.612 570.728 432.54 570.728C429.468 570.728 426.908 571.368 424.86 572.648C422.812 573.843 421.148 575.421 419.868 577.384C418.673 579.347 417.82 581.608 417.308 584.168C416.796 586.728 416.54 589.331 416.54 591.976ZM398.364 591.976C398.364 586.685 399.175 581.907 400.796 577.64C402.417 573.288 404.721 569.619 407.708 566.632C410.695 563.56 414.279 561.213 418.46 559.592C422.641 557.885 427.335 557.032 432.54 557.032C437.745 557.032 442.439 557.885 446.62 559.592C450.887 561.213 454.513 563.56 457.5 566.632C460.487 569.619 462.791 573.288 464.412 577.64C466.033 581.907 466.844 586.685 466.844 591.976C466.844 597.267 466.033 602.045 464.412 606.312C462.791 610.579 460.487 614.248 457.5 617.32C454.513 620.307 450.887 622.611 446.62 624.232C442.439 625.853 437.745 626.664 432.54 626.664C427.335 626.664 422.641 625.853 418.46 624.232C414.279 622.611 410.695 620.307 407.708 617.32C404.721 614.248 402.417 610.579 400.796 606.312C399.175 602.045 398.364 597.267 398.364 591.976ZM478.662 558.824H495.942V568.04H496.326C498.63 564.2 501.617 561.427 505.286 559.72C508.955 557.928 512.71 557.032 516.55 557.032C521.414 557.032 525.382 557.715 528.454 559.08C531.611 560.36 534.086 562.195 535.878 564.584C537.67 566.888 538.907 569.747 539.59 573.16C540.358 576.488 540.742 580.2 540.742 584.296V625H522.566V587.624C522.566 582.163 521.713 578.109 520.006 575.464C518.299 572.733 515.27 571.368 510.918 571.368C505.969 571.368 502.385 572.861 500.166 575.848C497.947 578.749 496.838 583.571 496.838 590.312V625H478.662V558.824ZM577.577 558.824H590.889V570.984H577.577V603.752C577.577 606.824 578.089 608.872 579.113 609.896C580.137 610.92 582.185 611.432 585.257 611.432C586.281 611.432 587.262 611.389 588.201 611.304C589.14 611.219 590.036 611.091 590.889 610.92V625C589.353 625.256 587.646 625.427 585.769 625.512C583.892 625.597 582.057 625.64 580.265 625.64C577.449 625.64 574.761 625.427 572.201 625C569.726 624.659 567.508 623.933 565.545 622.824C563.668 621.715 562.174 620.136 561.065 618.088C559.956 616.04 559.401 613.352 559.401 610.024V570.984H548.393V558.824H559.401V538.984H577.577V558.824ZM599.537 558.824H616.817V571.112H617.073C617.926 569.064 619.078 567.187 620.529 565.48C621.98 563.688 623.644 562.195 625.521 561C627.398 559.72 629.404 558.739 631.537 558.056C633.67 557.373 635.889 557.032 638.193 557.032C639.388 557.032 640.71 557.245 642.161 557.672V574.568C641.308 574.397 640.284 574.269 639.089 574.184C637.894 574.013 636.742 573.928 635.633 573.928C632.305 573.928 629.489 574.483 627.185 575.592C624.881 576.701 623.004 578.237 621.553 580.2C620.188 582.077 619.206 584.296 618.609 586.856C618.012 589.416 617.713 592.189 617.713 595.176V625H599.537V558.824ZM663.165 591.976C663.165 594.621 663.421 597.224 663.933 599.784C664.445 602.259 665.298 604.52 666.493 606.568C667.773 608.531 669.437 610.109 671.485 611.304C673.533 612.499 676.093 613.096 679.165 613.096C682.237 613.096 684.797 612.499 686.845 611.304C688.978 610.109 690.642 608.531 691.837 606.568C693.117 604.52 694.013 602.259 694.525 599.784C695.037 597.224 695.293 594.621 695.293 591.976C695.293 589.331 695.037 586.728 694.525 584.168C694.013 581.608 693.117 579.347 691.837 577.384C690.642 575.421 688.978 573.843 686.845 572.648C684.797 571.368 682.237 570.728 679.165 570.728C676.093 570.728 673.533 571.368 671.485 572.648C669.437 573.843 667.773 575.421 666.493 577.384C665.298 579.347 664.445 581.608 663.933 584.168C663.421 586.728 663.165 589.331 663.165 591.976ZM644.989 591.976C644.989 586.685 645.8 581.907 647.421 577.64C649.042 573.288 651.346 569.619 654.333 566.632C657.32 563.56 660.904 561.213 665.085 559.592C669.266 557.885 673.96 557.032 679.165 557.032C684.37 557.032 689.064 557.885 693.245 559.592C697.512 561.213 701.138 563.56 704.125 566.632C707.112 569.619 709.416 573.288 711.037 577.64C712.658 581.907 713.469 586.685 713.469 591.976C713.469 597.267 712.658 602.045 711.037 606.312C709.416 610.579 707.112 614.248 704.125 617.32C701.138 620.307 697.512 622.611 693.245 624.232C689.064 625.853 684.37 626.664 679.165 626.664C673.96 626.664 669.266 625.853 665.085 624.232C660.904 622.611 657.32 620.307 654.333 617.32C651.346 614.248 649.042 610.579 647.421 606.312C645.8 602.045 644.989 597.267 644.989 591.976ZM725.799 533.608H743.975V625H725.799V533.608ZM791.695 613.096C794.682 613.096 797.156 612.499 799.119 611.304C801.167 610.109 802.788 608.573 803.983 606.696C805.263 604.733 806.159 602.472 806.671 599.912C807.183 597.352 807.439 594.749 807.439 592.104C807.439 589.459 807.14 586.856 806.543 584.296C806.031 581.736 805.135 579.475 803.855 577.512C802.575 575.464 800.911 573.843 798.863 572.648C796.9 571.368 794.468 570.728 791.567 570.728C788.58 570.728 786.063 571.368 784.015 572.648C782.052 573.843 780.431 575.421 779.151 577.384C777.956 579.347 777.103 581.608 776.591 584.168C776.079 586.728 775.823 589.373 775.823 592.104C775.823 594.749 776.079 597.352 776.591 599.912C777.188 602.472 778.084 604.733 779.279 606.696C780.559 608.573 782.223 610.109 784.271 611.304C786.319 612.499 788.794 613.096 791.695 613.096ZM758.287 558.824H775.567V567.272H775.823C778.042 563.688 780.858 561.085 784.271 559.464C787.684 557.843 791.439 557.032 795.535 557.032C800.74 557.032 805.22 558.013 808.975 559.976C812.73 561.939 815.844 564.541 818.319 567.784C820.794 571.027 822.628 574.824 823.823 579.176C825.018 583.443 825.615 587.923 825.615 592.616C825.615 597.053 825.018 601.32 823.823 605.416C822.628 609.512 820.794 613.139 818.319 616.296C815.93 619.453 812.9 621.971 809.231 623.848C805.647 625.725 801.423 626.664 796.559 626.664C792.463 626.664 788.666 625.853 785.167 624.232C781.754 622.525 778.938 620.051 776.719 616.808H776.463V648.168H758.287V558.824ZM837.049 533.608H855.225V625H837.049V533.608ZM868.769 579.176C869.025 574.909 870.092 571.368 871.969 568.552C873.846 565.736 876.236 563.475 879.137 561.768C882.038 560.061 885.281 558.867 888.865 558.184C892.534 557.416 896.204 557.032 899.873 557.032C903.201 557.032 906.572 557.288 909.985 557.8C913.398 558.227 916.513 559.123 919.329 560.488C922.145 561.853 924.449 563.773 926.241 566.248C928.033 568.637 928.929 571.837 928.929 575.848V610.28C928.929 613.267 929.1 616.125 929.441 618.856C929.782 621.587 930.38 623.635 931.233 625H912.801C912.46 623.976 912.161 622.952 911.905 621.928C911.734 620.819 911.606 619.709 911.521 618.6C908.62 621.587 905.206 623.677 901.281 624.872C897.356 626.067 893.345 626.664 889.249 626.664C886.092 626.664 883.148 626.28 880.417 625.512C877.686 624.744 875.297 623.549 873.249 621.928C871.201 620.307 869.58 618.259 868.385 615.784C867.276 613.309 866.721 610.365 866.721 606.952C866.721 603.197 867.361 600.125 868.641 597.736C870.006 595.261 871.713 593.299 873.761 591.848C875.894 590.397 878.284 589.331 880.929 588.648C883.66 587.88 886.39 587.283 889.121 586.856C891.852 586.429 894.54 586.088 897.185 585.832C899.83 585.576 902.177 585.192 904.225 584.68C906.273 584.168 907.894 583.443 909.089 582.504C910.284 581.48 910.838 580.029 910.753 578.152C910.753 576.189 910.412 574.653 909.729 573.544C909.132 572.349 908.278 571.453 907.169 570.856C906.145 570.173 904.908 569.747 903.457 569.576C902.092 569.32 900.598 569.192 898.977 569.192C895.393 569.192 892.577 569.96 890.529 571.496C888.481 573.032 887.286 575.592 886.945 579.176H868.769ZM910.753 592.616C909.985 593.299 909.004 593.853 907.809 594.28C906.7 594.621 905.462 594.92 904.097 595.176C902.817 595.432 901.452 595.645 900.001 595.816C898.55 595.987 897.1 596.2 895.649 596.456C894.284 596.712 892.918 597.053 891.553 597.48C890.273 597.907 889.121 598.504 888.097 599.272C887.158 599.955 886.39 600.851 885.793 601.96C885.196 603.069 884.897 604.477 884.897 606.184C884.897 607.805 885.196 609.171 885.793 610.28C886.39 611.389 887.201 612.285 888.225 612.968C889.249 613.565 890.444 613.992 891.809 614.248C893.174 614.504 894.582 614.632 896.033 614.632C899.617 614.632 902.39 614.035 904.353 612.84C906.316 611.645 907.766 610.237 908.705 608.616C909.644 606.909 910.198 605.203 910.369 603.496C910.625 601.789 910.753 600.424 910.753 599.4V592.616ZM943.037 558.824H960.317V568.04H960.701C963.005 564.2 965.992 561.427 969.661 559.72C973.33 557.928 977.085 557.032 980.925 557.032C985.789 557.032 989.757 557.715 992.829 559.08C995.986 560.36 998.461 562.195 1000.25 564.584C1002.04 566.888 1003.28 569.747 1003.96 573.16C1004.73 576.488 1005.12 580.2 1005.12 584.296V625H986.941V587.624C986.941 582.163 986.088 578.109 984.381 575.464C982.674 572.733 979.645 571.368 975.293 571.368C970.344 571.368 966.76 572.861 964.541 575.848C962.322 578.749 961.213 583.571 961.213 590.312V625H943.037V558.824ZM1063.46 584.808C1062.6 580.2 1061.07 576.701 1058.85 574.312C1056.71 571.923 1053.43 570.728 1048.99 570.728C1046.09 570.728 1043.66 571.24 1041.7 572.264C1039.82 573.203 1038.28 574.397 1037.09 575.848C1035.98 577.299 1035.17 578.835 1034.66 580.456C1034.23 582.077 1033.97 583.528 1033.89 584.808H1063.46ZM1033.89 596.328C1034.14 602.216 1035.64 606.483 1038.37 609.128C1041.1 611.773 1045.02 613.096 1050.14 613.096C1053.81 613.096 1056.97 612.2 1059.62 610.408C1062.26 608.531 1063.88 606.568 1064.48 604.52H1080.48C1077.92 612.456 1073.99 618.131 1068.7 621.544C1063.41 624.957 1057.01 626.664 1049.5 626.664C1044.3 626.664 1039.61 625.853 1035.42 624.232C1031.24 622.525 1027.7 620.136 1024.8 617.064C1021.9 613.992 1019.64 610.323 1018.02 606.056C1016.48 601.789 1015.71 597.096 1015.71 591.976C1015.71 587.027 1016.52 582.419 1018.14 578.152C1019.77 573.885 1022.07 570.216 1025.06 567.144C1028.04 563.987 1031.58 561.512 1035.68 559.72C1039.86 557.928 1044.47 557.032 1049.5 557.032C1055.14 557.032 1060.04 558.141 1064.22 560.36C1068.41 562.493 1071.82 565.395 1074.46 569.064C1077.19 572.733 1079.16 576.915 1080.35 581.608C1081.55 586.301 1081.97 591.208 1081.63 596.328H1033.89Z" fill="white"/>
<path d="M97 503C97 494.163 104.163 487 113 487H261C269.837 487 277 494.163 277 503V651C277 659.837 269.837 667 261 667H113C104.163 667 97 659.837 97 651V503Z" fill="#F6EFD1"/>
<path d="M223.524 530.593C223.524 524.19 228.714 519 235.117 519C241.519 519 246.71 524.19 246.71 530.593V622.407C246.71 628.81 241.519 634 235.117 634C228.714 634 223.524 628.81 223.524 622.407V530.593Z" fill="#536C54" fill-opacity="0.6"/>
<path d="M182.718 531C182.718 524.373 188.09 519 194.718 519H203.177C209.805 519 215.177 524.373 215.177 531V622C215.177 628.627 209.805 634 203.177 634H194.718C188.09 634 182.718 628.627 182.718 622V531Z" fill="#536C54" fill-opacity="0.8"/>
<path d="M128 531C128 524.373 133.373 519 140 519H162.371C168.998 519 174.371 524.373 174.371 531V622C174.371 628.627 168.998 634 162.371 634H140C133.373 634 128 628.627 128 622V531Z" fill="#536C54"/>
<path d="M128 531C128 524.373 133.373 519 140 519H162.371C168.998 519 174.371 524.373 174.371 531V622C174.371 628.627 168.998 634 162.371 634H140C133.373 634 128 628.627 128 622V531Z" fill="#536C54"/>
</svg>
